<svg xmlns="http://www.w3.org/2000/svg" width="44.643" height="50.463" viewBox="0 0 44.643 50.463">
  <g id="_3" data-name="3" transform="translate(-0.05 -0.878)">
    <path id="Path_56295" data-name="Path 56295" d="M238.561,255.556a.444.444,0,0,1-.249.079.458.458,0,0,1-.331-.137.48.48,0,0,1-.14-.359.536.536,0,0,1,.121-.354.4.4,0,0,1,.33-.146.465.465,0,0,1,.231.055.414.414,0,0,1,.2.312l-.214,0a.188.188,0,0,0-.082-.139.21.21,0,0,0-.115-.033.188.188,0,0,0-.155.078.381.381,0,0,0-.06.235.321.321,0,0,0,.067.226.212.212,0,0,0,.16.071.17.17,0,0,0,.13-.047.225.225,0,0,0,.056-.118h.209a.393.393,0,0,1-.155.279Zm-.763-.906a.7.7,0,0,0,0,.982.687.687,0,0,0,.979,0,.7.7,0,0,0,0-.981.682.682,0,0,0-.984,0Zm1.082,1.09a.839.839,0,0,1-1.428-.6.8.8,0,0,1,.262-.612.823.823,0,0,1,.578-.228.842.842,0,0,1,.588,1.443Z" transform="translate(-195.985 -209.209)" fill="#59473d"/>
    <path id="Path_56296" data-name="Path 56296" d="M44.69,37.512c0-.084-.011-.165-.02-.24a1.152,1.152,0,0,0-.028-.148,2.167,2.167,0,0,0-.084-.329v0a1.9,1.9,0,0,0-.351-.609,1.823,1.823,0,0,0-.521-.415l-.006,0a2.021,2.021,0,0,0-.563-.193c-.051-.009-.1-.014-.147-.02a2.913,2.913,0,0,0-.237-2.029l.042-.04a6.22,6.22,0,0,0,.611-.672l.032-.044a2.13,2.13,0,0,0,.285-.583,2.263,2.263,0,0,0,.088-.434h0v-.027l.006-.04h0l0-.045h0v-.027c0-.027,0-.055,0-.084,0-.054,0-.11,0-.172a2.857,2.857,0,0,0-.261-1.1,2.515,2.515,0,0,0-.41-.619,2.571,2.571,0,0,0-.655-.52h0l-.05-.03a9.346,9.346,0,0,0-1.672-1.844c-.278-.238-.538-.436-.76-.6s-.4-.288-.507-.365h0a5.03,5.03,0,0,0-.5-.325c-.193-.118-.337-.211-.424-.277a.864.864,0,0,1-.113-.1l-.007-.009a.259.259,0,0,1-.019-.069,1.734,1.734,0,0,1-.028-.27q-.013-.3.02-.891c.035-.63.107-1.5.181-2.676a9.937,9.937,0,0,0,.014-1.06,7.067,7.067,0,0,0-.2-1.454v0c-.024-.1-.053-.2-.083-.294h0c-.023-.072-.042-.126-.054-.161v0c-.023-.064-.046-.127-.072-.192v0c-.013-.031-.029-.072-.05-.122h0c-.04-.095-.086-.2-.144-.307L38,18.043l-.029-.052-.021-.035a4.8,4.8,0,0,0-.34-.488,8.182,8.182,0,0,0-.337-1.127,6.477,6.477,0,0,0-.651-1.284,4.726,4.726,0,0,0-.343-.447l.042-.044a19.823,19.823,0,0,0,2.562-3.439c2.048-3.556,1.367-5.73.434-6.927l-.026-.033-.028-.031a5.656,5.656,0,0,0-3.634-1.789c-3.132-.39-6.675,1.147-7.6,1.585L26.333,2.065l-.006-.007a3.217,3.217,0,0,0-.493-.439,3.473,3.473,0,0,0-.571-.333A4.407,4.407,0,0,0,23.945.923a8.626,8.626,0,0,0-3.159.292,22.219,22.219,0,0,0-5.7,2.528,39.47,39.47,0,0,0-6.2,4.664,37.87,37.87,0,0,0-6.09,7A21.945,21.945,0,0,0,.973,18.735,11.2,11.2,0,0,0,.1,21.726a5.458,5.458,0,0,0,.065,1.9,3.709,3.709,0,0,0,.253.738,3.259,3.259,0,0,0,.545.826l.006.006,1.964,2.057-.011.02c-.021.037-.041.075-.062.113-.03.056-.061.112-.09.168-.02.039-.039.077-.057.116-.028.058-.055.115-.082.173-.018.039-.035.078-.052.118q-.039.088-.074.179l-.047.119c-.023.061-.045.123-.067.184-.014.04-.027.08-.04.12-.021.063-.039.126-.058.19-.005.018-.011.035-.016.053l-.019.068c-.018.065-.034.131-.05.2-.01.039-.02.079-.029.119l-.018.087c-.009.041-.016.082-.024.123s-.015.074-.022.112c-.015.083-.027.168-.038.251,0,.025-.008.049-.011.074v.007l0,.023c-.007.055-.011.11-.017.166-.008.087-.015.174-.02.262,0,.038,0,.077-.006.117s0,.06,0,.09c0,.061,0,.123,0,.185,0,.037,0,.074,0,.112,0,.022,0,.044,0,.067v.013c0,.04,0,.08,0,.119s.006.087.009.13,0,.065,0,.1,0,.05.006.069c0,.041.007.082.012.122s.009.1.016.154v0h0c0,.022.005.037.008.055.006.046.014.092.021.138s.013.087.022.145l.012.059c.005.028.011.056.016.083v.006l.007.035c.007.038.017.086.031.151l.01.044.024.095.01.042.012.046.01.039.009.032.008.029.011.038.011.04c.009.031.02.062.029.093s.026.085.047.149l0-.011,0,.012c0,.016.009.026.014.039l.041.116v0h0c.012.035.031.087.056.154h0v0l0,.006v0l.011.028c.016.041.029.073.04.1l.013.031,0,0,.026.062.035.082v0l.014.03c.013.029.025.056.036.078l.027.056v0c.017.034.036.079.064.134l0,.005,0,0,.012.023L2.8,33.9l.038.07,0,0c.015.027.036.068.065.12l0,0,0,0,.012.02.034.059L3,34.267l0,.006v0l.065.107,0,0,.009.014.042.066.057.085,0,0c.018.026.042.064.076.112l0,0,0,0,0,0,0,.005,0,0h0v0h0l.048.067.062.084v0l.068.091.006.008.059.076.071.087.007.009.056.068.011.013h0l0,0,.006.007c.035.042.067.077.1.113l.034.039h0l0,0h0l.059.065.008.009h0l0,0h0c.038.042.076.08.114.118l.047.048,0,0,.056.057.006.005.017.018c.046.045.093.088.14.131l.011.011,0,0h0l0,0,.06.054,0,0c.06.053.121.105.181.156l0,0,.034.028.023.019h0L4.6,36.1c.051.041.1.08.149.117l.014.011.006,0,.04.03.009.007.007,0,.042.03L5,36.4l.036.025,0,0,.045.03h0l.023.015c.044.029.09.058.136.088l.072.046.039.024.022.013.015.009c.072.043.14.082.2.116l.006,0,.038.021,0,0q.128.068.244.126l.013.006.042.02h0c.042.02.082.038.123.056l.058.026.071.033.02.009.006,0,.009,0,.119.047.02.008c.044.018.089.037.133.053l.011,0,.033.012.063.022.02.007c.063.023.127.046.191.066l.015,0,.006,0h0q.149.046.3.086h0l.017,0H7.154c.087.023.173.043.259.062h0l.032.008.033.007c.081.018.164.032.248.047l.024.006.059.009.151.022.022.059v0q.206.562.446,1.117c2.356,6.52,8.869,11.575,16.3,12.5s15.366-4.016,18.6-10.691c.139-.255.266-.506.382-.749a3.712,3.712,0,0,0,.735-1.035,2.691,2.691,0,0,0,.246-1.243" transform="translate(0)" fill="#59473d"/>
    <path id="Path_56297" data-name="Path 56297" d="M218.468,101.184v0h0v0" transform="translate(-180.313 -82.808)" fill="#59473d"/>
    <path id="Path_56298" data-name="Path 56298" d="M30.471,205.812h0" transform="translate(-25.113 -169.182)" fill="#59473d"/>
    <path id="Path_56299" data-name="Path 56299" d="M18.41,194.511h0" transform="translate(-15.157 -159.853)" fill="#59473d"/>
    <path id="Path_56300" data-name="Path 56300" d="M18.413,194.517h0" transform="translate(-15.158 -159.856)" fill="#59473d"/>
    <path id="Path_56301" data-name="Path 56301" d="M12.761,182.536v0h0v0" transform="translate(-10.492 -149.964)" fill="#59473d"/>
    <path id="Path_56302" data-name="Path 56302" d="M12.285,180.655h0v0" transform="translate(-10.1 -148.413)" fill="#59473d"/>
    <path id="Path_56303" data-name="Path 56303" d="M19.494,195.993l0,0,0,0,0,0,0,0" transform="translate(-16.049 -161.073)" fill="#59473d"/>
    <path id="Path_56304" data-name="Path 56304" d="M44.445,11.037a4.04,4.04,0,0,0-1.228-.925c-.083-.031-.167-.062-.253-.086-.042-.028-.085-.054-.128-.08a5.463,5.463,0,0,0-1.259-.309A13.177,13.177,0,0,0,35.553,10.7l-.233.1-.358.155c-.2.089-.408.183-.617.28l-.091.043-.554-.644-.159-.185-.069-.08L32.023,8.688,31.9,8.542l-.156-.181-.028.006-.41.093-.473.107a3.129,3.129,0,0,0-.933-.253,7.369,7.369,0,0,0-2.679.262,17.878,17.878,0,0,0-3.452,1.335,35.715,35.715,0,0,0-7.9,5.559c-.927.845-1.791,1.709-2.586,2.575-.772.84-1.478,1.683-2.111,2.515a23.436,23.436,0,0,0-2.9,4.795A9.942,9.942,0,0,0,7.5,28a4.178,4.178,0,0,0,.042,1.449,2.482,2.482,0,0,0,.116.362,2,2,0,0,0,.377.619L9.637,32.11l.172.18.011-.012c.049-.057.1-.113.15-.169l.014-.015.056-.058c.048-.05.1-.1.147-.15l.094-.089c.031-.029.06-.059.091-.087l.043-.037c.033-.03.067-.059.1-.088s.094-.081.143-.12l.085-.069.013-.01c.051-.04.1-.079.154-.118l.1-.072.163-.113.1-.066c.056-.037.114-.072.171-.107l.1-.06c.06-.035.121-.069.182-.1l.1-.053.037-.019.006,0c.052-.027.1-.051.157-.077l.088-.043c.044-.021.089-.04.134-.06l.117-.051.043-.019q.149-.061.3-.115l.1-.032.1-.034.041-.014.063-.02.13-.037.032-.009.151-.041c.047-.012.094-.022.142-.033l.176-.039.074-.015.075-.013.174-.029.154-.022.124-.016.05,0,.056-.007.031,0a5.942,5.942,0,0,1,.678.012l.038,0a6.432,6.432,0,0,1,.8.12c.068.015.135.028.2.045l.044-.08c.15-.269.3-.531.454-.788A28.53,28.53,0,0,1,19.435,25.3q.5-.586,1.009-1.115a25.987,25.987,0,0,1,4.112-3.493q.431-.294.842-.551c.373-.233.732-.443,1.074-.633q.417-.231.8-.422c.422-.212.806-.388,1.144-.533.1-.045.205-.087.3-.125.148-.06.284-.114.408-.16-.107-.011-.215-.02-.325-.025s-.208-.007-.313-.008H28.4c-.107,0-.215,0-.324.011-.207.012-.419.034-.635.068q-.108.017-.218.039a9.486,9.486,0,0,1,1.581-.645,9.742,9.742,0,0,1,.992-.249,9.973,9.973,0,0,1,1.241-.16c.258-.017.5-.023.724-.021s.434.012.62.026a6.744,6.744,0,0,1,1.046.149,1.669,1.669,0,0,0-.336-.343,2.946,2.946,0,0,0-.731-.4c-.092-.036-.179-.067-.256-.091-.061-.019-.118-.036-.165-.048.11-.019.219-.035.326-.049s.226-.028.337-.039a8.68,8.68,0,0,1,2.381.108,6.434,6.434,0,0,1,1.194.325,1.816,1.816,0,0,0-.436-.533,3.01,3.01,0,0,0-.385-.281c.25.058.487.122.713.191a10.613,10.613,0,0,1,1.5.586c.129.062.247.122.353.179l.086.047a6.281,6.281,0,0,1,.567.342,1.768,1.768,0,0,0-.329-.6c-.036-.046-.073-.091-.111-.133l.018.008.082.027.106.037a6.772,6.772,0,0,1,.687.3l.042.021.118.061c.1.052.2.109.3.17s.195.119.293.185q.076.051.153.106.163.117.324.252c.11.092.218.19.323.294l.062.063c.076.078.15.161.221.247a3.958,3.958,0,0,1,.372.524,3.592,3.592,0,0,1,.332.734c0,.015.009.03.013.045.062-.066.17-.185.311-.347,1.173-1.349,4.628-5.729,2.547-8.4" transform="translate(-6.112 -6.11)" fill="#141c26"/>
    <path id="Path_56305" data-name="Path 56305" d="M117.175,97.34h0a.991.991,0,0,0-.12-.575l0-.007c-.009-.016-.019-.031-.029-.045l-.011-.016a.743.743,0,0,0-.061-.069.728.728,0,0,0-.14-.114.842.842,0,0,0-.092-.052,1.147,1.147,0,0,0-.329-.1,1.871,1.871,0,0,0-.32-.014c-.048,0-.095,0-.146.007H115.9l.009.031.023.086.012.047c.017.067.037.152.057.249a.568.568,0,0,1-.021.055l-.008.019a3.476,3.476,0,0,1-.576.865c-.061.07-.128.143-.2.218-1,1.029-3.152,2.495-7.688,3.315a16.046,16.046,0,0,1-4.17.078,5.837,5.837,0,0,1-3.76-1.565c-.054-.066-.1-.134-.151-.2-.035-.051-.069-.1-.1-.154l-.032-.058a2.946,2.946,0,0,1-.379-1.493,2.9,2.9,0,0,1,.52-1.638,2,2,0,0,1,1.013-.764,1.728,1.728,0,0,1,.635-.075c.045,0,.1.01.179.019l.612.081.085.011a20.745,20.745,0,0,0,3.846.134,16.886,16.886,0,0,0,10.472-4.334l.01-.013v-.006a1.6,1.6,0,0,0-.364-1.134,1.361,1.361,0,0,0-.208-.187,1.449,1.449,0,0,0-.144-.094c-.052-.029-.1-.058-.146-.088-.063-.04-.123-.079-.175-.118l-.008-.011c-.024-.038-.05-.074-.074-.112a9.929,9.929,0,0,0-2.706-2.586,3.482,3.482,0,0,0-.392-.256c-1.1-.67-1.261-.892-1.158-2.712.037-.655.108-1.516.181-2.684.01-.152.014-.3.017-.438,0-.034,0-.067,0-.1,0-.134,0-.265-.006-.391v-.036l0-.039q-.008-.148-.021-.288c0-.041-.008-.082-.012-.123-.011-.1-.023-.2-.039-.29-.008-.048-.017-.094-.026-.14s-.02-.1-.031-.154-.022-.1-.034-.147h0c-.015-.059-.032-.114-.048-.17-.006-.02-.011-.041-.017-.061s-.013-.036-.019-.055l-.006-.019-.019-.053v0c-.015-.043-.031-.085-.047-.126l0-.014-.016-.039-.019-.048,0-.009h0c-.033-.077-.068-.152-.1-.222l-.029-.052c-.042-.069-.084-.133-.128-.2l-.018-.026-.022-.029c-.031-.043-.063-.085-.094-.124l-.043-.054c-.042-.05-.084-.1-.127-.144h0v-.016l0-.012,0-.017,0-.017-.006-.028,0-.017-.008-.039,0-.014c-.015-.075-.036-.171-.064-.286l0-.008-.023-.087,0-.011c-.008-.031-.017-.063-.026-.1v0c-.022-.077-.047-.16-.074-.246-.009-.028-.019-.057-.029-.086-.02-.061-.041-.121-.064-.184-.013-.036-.028-.072-.042-.109-.022-.059-.046-.117-.072-.177-.016-.039-.035-.078-.052-.118-.027-.059-.055-.118-.084-.177-.02-.04-.04-.08-.061-.121-.032-.061-.066-.12-.1-.179l-.068-.115c-.04-.064-.083-.127-.127-.189-.022-.031-.043-.063-.066-.094s-.043-.052-.064-.078c-.05-.064-.1-.128-.155-.189l-.007-.007-.031-.03a2.737,2.737,0,0,0-.225-.218l-.014-.012c-.035-.03-.072-.059-.109-.086l0,0-.013-.01c-.032-.024-.065-.047-.1-.069l-.018-.012.007.006a1.078,1.078,0,0,0-.182-.1l-.1-.04a6.075,6.075,0,0,0-.679-.22l-.052-.013c-.228-.059-.482-.115-.752-.157-.091-.014-.182-.028-.276-.039-.044-.006-.089-.008-.133-.013l-.054,0a6.134,6.134,0,0,0-.642-.032h-.013a4.467,4.467,0,0,0-.822.078,1.191,1.191,0,0,1,.4-.313,4.526,4.526,0,0,1,.422-.208c-.121.009-.244.026-.367.046l-.12.019-.077.015-.023,0-.064.014a9.6,9.6,0,0,0-1.549.491l-.125.052-.021.009-.1.013h0a1.909,1.909,0,0,1,.881-.825c.048-.023.094-.043.135-.059l.042-.015c.04-.014.074-.025.1-.033.065-.019.107-.027.107-.027-.029,0-.057,0-.086.006l-.073.006-.107.008-.064,0a4.835,4.835,0,0,0-1.818.6,6.273,6.273,0,0,0-.95.646l-.22.046c-.749.16-1.606.366-2.506.642-.332.1-.671.214-1.013.336-.266.1-.534.2-.8.309q-.288.117-.576.246A13.559,13.559,0,0,0,92.3,78.561c-.041.04-.084.077-.125.117-.1.1-.2.2-.291.306-.039.042-.08.082-.119.125s-.093.111-.14.166a9.532,9.532,0,0,0-.608.78q-.212.3-.4.632l-.016.026a9.279,9.279,0,0,0-.681,1.464q-.142.392-.255.81c-.02.074-.039.148-.057.223l-.01.039c-.072.3-.13.617-.177.941-.009.064-.019.127-.027.191-.02.162-.036.326-.05.493s-.022.307-.029.464l0,.036c0,.077-.007.153-.009.231s0,.179,0,.27c0,.021,0,.042,0,.063,0,.177,0,.355.011.537l0,.029c.008.181.021.365.036.551.007.077.013.155.021.233,0,.019,0,.038,0,.057,0,.043.01.087.015.131q.034.309.083.627c.009.059.017.118.026.177.03.186.062.373.1.564a3.468,3.468,0,0,1-.013-.6c.005-.083.013-.171.024-.265a3.679,3.679,0,0,1,.144-.661c.018-.057.039-.114.061-.171.009-.025.02-.05.03-.075A2.885,2.885,0,0,1,90,86.75c.014.075.028.15.043.225l0,.024v.034c0,.047,0,.1,0,.15,0,.115,0,.244,0,.385s0,.294.009.455a13.144,13.144,0,0,0,.225,2.188s.027-1.264.242-1.408a23.84,23.84,0,0,0,.722,3.226,1.175,1.175,0,0,0,.133.263l-.009-.232-.049-1.3s0-.049.007-.134q.39.8.891,1.644c.093.156.188.312.286.47a6.8,6.8,0,0,0-1.665,2.324q-.1.229-.191.47c-.033.091-.065.185-.1.279-.01.029-.019.059-.028.089-.021.066-.041.132-.06.2-.01.034-.019.069-.028.1q-.027.1-.051.2c-.008.032-.016.064-.023.1-.022.1-.043.2-.061.295v.009q-.027.149-.048.3c0,.033-.009.066-.012.1q-.014.108-.024.217c0,.037-.007.074-.01.111-.006.073-.011.148-.015.221,0,.033,0,.067-.005.1,0,.107-.007.215-.007.323v.014c0,.083,0,.167.006.251s.009.169.015.255l0,.034v.021c.008.1.019.207.032.311,0,.033.01.066.014.1.01.071.019.143.032.215.006.04.014.08.021.12.012.066.025.131.039.2.009.042.019.085.028.127.015.064.03.129.047.193.011.043.022.086.034.13.018.065.036.13.056.195.013.043.026.086.039.128.022.067.045.135.068.2.014.04.028.081.043.121.027.075.057.149.087.224.013.033.026.067.04.1q.135.325.3.652c.017.032.035.065.052.1.041.076.082.153.126.229.023.04.047.08.071.12.041.069.082.138.126.207.026.043.054.085.082.128.043.066.087.133.133.2l.092.132q.07.1.144.2l.1.13c.052.068.106.135.161.2.033.041.066.082.1.123.061.073.125.147.19.22.03.035.059.069.09.1.1.107.2.215.3.321h0a2.733,2.733,0,0,1-.142-.238l0,0c-.015-.028-.031-.059-.047-.092l-.005-.009c-.017-.034-.034-.071-.052-.11l0-.007c-.019-.041-.038-.085-.057-.131a3.5,3.5,0,0,1-.282-1.443c.059.079.119.155.179.233.07.141.158.317.261.514l.108.2c.152.279.327.59.518.9a10.37,10.37,0,0,0,.744,1.067h0a7.041,7.041,0,0,1-.405-1.049.687.687,0,0,1-.027-.28l.073.075.073.075.177.235.034.045.107.14,0,0,.136.176a17.17,17.17,0,0,0,1.4,1.632,1.478,1.478,0,0,0,.339.262l-.583-1.045c1.32,1.074,6.766,2.453,12.132.914a15.571,15.571,0,0,0,1.932-.692c.385-.167.766-.35,1.144-.553l.055-.03q.4-.217.786-.463l.006,0q.293-.184.58-.385c.32-.226.638-.464.947-.722h0l.055-.047q.46-.4.86-.824a12.958,12.958,0,0,0,.955-1.128l.021-.027q.1-.14.2-.279l.019-.027.062-.093c.092-.133.184-.266.269-.4l.062-.1c.044-.07.087-.14.13-.209s.065-.109.1-.162l.1-.175c.06-.106.119-.211.175-.315l.065-.122c.043-.081.085-.162.124-.241l.055-.111.016-.035c.05-.1.1-.2.143-.3l.009-.021a3.318,3.318,0,0,0,.415-.461c.016-.021.032-.042.046-.063a1.629,1.629,0,0,0,.322-.925" transform="translate(-73.679 -59.69)" fill="#856249"/>
    <path id="Path_56306" data-name="Path 56306" d="M26.389,147.915c0-.024-.009-.049-.013-.073l0,0q-.094-.518-.144-1.062c0-.026-.006-.051-.009-.076a.476.476,0,0,0-.195.206c-.025.04-.05.085-.075.131a6.844,6.844,0,0,0-.345.813c.013-.158.03-.321.049-.486,0-.019,0-.038.007-.057.02-.168.043-.336.068-.5,0-.02.006-.04.009-.06.029-.189.06-.377.092-.559,0-.024.008-.047.012-.07l0-.012.011-.063c.005-.031.011-.063.017-.093.026-.144.053-.283.079-.415s.047-.232.069-.338l.007-.034c0-.017.007-.032.01-.048s.007-.032.01-.048v-.006l.017-.079,0-.007c0-.025.01-.046.015-.069s.016-.074.024-.108l0-.01c.006-.028.012-.056.018-.081s.016-.07.023-.1h0l.012-.051v0c0-.015.007-.031.01-.044l.02-.087,0-.021,0-.008.006-.025,0-.017v0l0,0-.037.033c-.032.029-.065.057-.1.089l-.033.037a1.6,1.6,0,0,0-.1.126l-.017.021c-.04.056-.077.114-.113.174h0l0,.008h0l-.014.027-.024.044c-.021.037-.042.073-.06.111h0v0l-.007.014-.007.014c-.029.06-.055.119-.079.177a4.789,4.789,0,0,0-.163.451c-.014.046-.027.09-.038.129-.023.084-.04.15-.047.182v0l-.005.022h0l0-.025c0-.05.009-.1.013-.15.008-.1.014-.21.026-.314.009-.088.023-.173.035-.26l.012-.081c.005-.04.011-.08.018-.12s.014-.074.021-.11v0h0l.008-.041,0-.011c.008-.045.017-.09.025-.135,0-.017.006-.035.01-.052l.006-.031v-.006l.009-.044c0-.018.009-.036.012-.053.015-.066.031-.13.046-.195l0-.011c.011-.048.022-.1.034-.144v-.005l0-.014c.025-.1.053-.193.081-.289l.015-.053c.005-.018.01-.036.016-.054.046-.156.1-.31.149-.46l.007-.019c.045-.128.091-.254.139-.378l.005-.014c.022-.055.044-.107.065-.161l0-.008c.033-.08.065-.161.1-.239h0l0-.01c.009-.02.03-.067.062-.137h0l0-.009h0l.037-.082.059-.132.018-.038v0l.34-.611.042-.077.007-.012.017-.031.111-.2.156-.281c.1-.18.185-.332.237-.424l.053-.1,0,0h0l0,0c-.013-.009-.116-.08-.286-.183a8.687,8.687,0,0,0-.818-.434q-.165-.077-.346-.151c-.145-.06-.3-.117-.455-.17-.041-.014-.084-.025-.125-.037q-.2-.063-.408-.113l-.008,0c-.1-.023-.191-.047-.289-.065-.077-.015-.154-.029-.232-.04-.037-.005-.076-.008-.114-.012l-.112-.011c-.105-.009-.211-.014-.317-.017-.051,0-.1,0-.154,0a5.709,5.709,0,0,0-.678.057l-.04.006a5.622,5.622,0,0,0-1.154.3q-.187.07-.369.153l-.1.049-.124.061a5.669,5.669,0,0,0-1.019.674l-.011.009a5.652,5.652,0,0,0-.742.742q-.1.115-.186.236-.106.142-.2.291a5.709,5.709,0,0,0-.335.585c-.035.071-.07.142-.1.215l-.017.042a5.656,5.656,0,0,0-.423,1.507q-.021.155-.034.314l0,.039q-.009.125-.013.252c0,.1,0,.207,0,.311,0,.017,0,.033,0,.049,0,.081.006.162.012.242l0,.042,0,.056c.005.064.011.126.019.188l0,.014v0h0c0,.031.01.063.014.094.008.056.016.113.025.169.007.041.016.08.024.121s.02.1.032.156.021.084.031.126l.007.029.011.044.009.033.011.04c.012.043.026.086.039.129s.027.092.042.136.031.088.047.131l.013.035c.011.031.022.063.034.094s.036.088.054.133.033.081.051.121c.01.023.021.045.031.067s.021.045.031.067c.018.038.036.076.055.114s.047.09.071.135.037.071.057.105.053.091.081.137l.058.1c.029.046.059.091.09.136l.06.089c.032.046.066.091.1.137l.06.08c.035.047.072.092.11.137.019.024.039.048.059.072.039.046.079.091.12.137l.058.064c.042.046.086.091.13.135l.056.057c.046.045.094.09.141.133l.054.049q.075.066.152.131l.051.042c.054.044.109.086.164.128l.047.036c.058.042.116.083.175.123l.044.03c.061.041.123.081.185.119l.04.024c.065.04.131.076.2.114l.034.019c.069.037.139.072.209.107l.03.014c.072.035.145.068.219.1l.026.011c.076.032.152.062.229.091l.022.008c.079.029.158.057.239.082l.016.005.119.034.13.038.012,0q.128.033.258.061l.007,0h0c.088.019.176.035.265.049h0a5.716,5.716,0,0,0,.84.072c.068,0,.136,0,.2,0,.091,0,.185-.008.279-.016q.193-.016.39-.045.174-.026.346-.062c.179-.037.356-.081.527-.13a4.131,4.131,0,0,0,1.235-.549s-.178-.788-.328-1.588c-.016-.088-.032-.176-.048-.263" transform="translate(-14.946 -114.144)" fill="#856249"/>
    <path id="Path_56307" data-name="Path 56307" d="M199.05,80.914h0l0,0h0" transform="translate(-164.283 -66.073)" fill="#856249"/>
    <path id="Path_56308" data-name="Path 56308" d="M30.338,10.285l-.065-.8.4-.884.158-.035a3.129,3.129,0,0,0-.933-.253,7.369,7.369,0,0,0-2.679.262,17.878,17.878,0,0,0-3.452,1.335,35.715,35.715,0,0,0-7.9,5.559c-.927.845-1.791,1.709-2.586,2.575-.772.84-1.478,1.683-2.111,2.515a23.436,23.436,0,0,0-2.9,4.795A9.942,9.942,0,0,0,7.5,28a4.178,4.178,0,0,0,.042,1.449,2.482,2.482,0,0,0,.116.362,2,2,0,0,0,.377.619L9.637,32.11l.172.18.011-.012c.049-.057.1-.113.15-.169l.014-.015.056-.058c.048-.05.1-.1.147-.15l.094-.089c.031-.029.06-.059.091-.087l.043-.037c.033-.03.067-.059.1-.088s.094-.081.143-.12l.085-.069.013-.01c.051-.04.1-.079.154-.118l.1-.072.163-.113.1-.066c.056-.037.114-.072.171-.107l.1-.06c.06-.035.121-.069.182-.1l.1-.053.037-.019,0-.007a18.637,18.637,0,0,1,1.708-3.427,32.657,32.657,0,0,1,3.483-4.578c.876-.973,1.837-1.942,2.876-2.89a40.934,40.934,0,0,1,4.063-3.263c.91-.638,1.81-1.206,2.689-1.7.083-.047.167-.1.25-.142.234-.13.466-.253.7-.371q.753-.389,1.476-.7l-.236-.283-.039-.047-1.952-2.347.015-1.43-.018-.021,1.173-.35,2.291,1.172" transform="translate(-6.112 -6.11)" fill="#3478ad"/>
    <path id="Path_56309" data-name="Path 56309" d="M137.778,116.616h0a.991.991,0,0,0-.12-.575l0-.007c-.009-.016-.019-.031-.029-.045l-.011-.016a.746.746,0,0,0-.061-.069.729.729,0,0,0-.14-.114.849.849,0,0,0-.092-.052,1.148,1.148,0,0,0-.329-.1,1.871,1.871,0,0,0-.32-.014c-.048,0-.095,0-.146.007H136.5l.009.031.023.086.012.047c.017.067.037.152.057.249a.575.575,0,0,1-.021.055l-.008.019a3.476,3.476,0,0,1-.576.865c-.061.07-.128.143-.2.219-1,1.029-3.152,2.495-7.688,3.315a16.046,16.046,0,0,1-4.17.078,5.837,5.837,0,0,1-3.76-1.565c-.054-.066-.1-.134-.151-.2-.035-.051-.069-.1-.1-.154l-.032-.058a2.946,2.946,0,0,1-.379-1.493,2.9,2.9,0,0,1,.52-1.638,2,2,0,0,1,1.013-.764,1.728,1.728,0,0,1,.635-.075c.045,0,.1.01.179.019l.612.081.085.011a20.745,20.745,0,0,0,3.846.134,16.886,16.886,0,0,0,10.472-4.334l.01-.013v-.006a1.6,1.6,0,0,0-.364-1.134,1.359,1.359,0,0,0-.208-.187,1.449,1.449,0,0,0-.144-.094c-.052-.029-.1-.058-.146-.088-.063-.04-.123-.079-.175-.118l-.008-.011c-.024-.038-.05-.074-.074-.112a9.929,9.929,0,0,0-2.706-2.586,3.482,3.482,0,0,0-.392-.256c-1.1-.67-1.261-.892-1.158-2.712.037-.655.108-1.516.181-2.684.01-.152.014-.3.017-.438,0-.034,0-.067,0-.1,0-.134,0-.265-.006-.391v-.036l0-.039q-.008-.148-.021-.288c0-.041-.008-.082-.012-.123-.011-.1-.024-.2-.039-.29-.008-.048-.017-.094-.026-.14s-.02-.1-.031-.154-.022-.1-.034-.147h0c-.015-.059-.032-.114-.048-.17-.006-.02-.011-.041-.017-.061s-.013-.036-.019-.055l-.006-.019-.019-.053v0c-.015-.043-.031-.085-.047-.126l0-.014-.016-.039-.019-.048,0-.009h0c-.033-.077-.068-.152-.1-.222l-.029-.052c-.042-.069-.084-.133-.128-.2l-.018-.026-.022-.029c-.031-.043-.063-.085-.094-.124l-.043-.054c-.042-.05-.084-.1-.127-.144h0c-.052-.055-.1-.107-.157-.154s-.12-.071-.18-.1c-.02-.01-.039-.018-.059-.026-.039-.018-.079-.036-.119-.051l-.069-.024c-.035-.011-.072-.023-.107-.032l-.071-.016c-.035-.007-.069-.014-.1-.019l-.071-.008c-.034,0-.069,0-.1-.006h-.069c-.035,0-.07,0-.105.005l-.065.006-.047.007-.065.01-.056.01c-.044.009-.087.02-.13.033l-.038.01a2.641,2.641,0,0,0-.339.128l-.037.018c-.044.02-.087.041-.131.064l-.05.027c-.04.021-.079.042-.118.065l-.054.031-.117.07-.053.033-.122.078-.045.029-.138.092-.027.019-.157.108,0,0-.008,0h0l-.295.2-.252.173-.041.028c-.085.057-.172.113-.259.169l-.044.027c-.087.054-.175.107-.263.157l-.046.026c-.089.05-.179.1-.27.141l-.045.021c-.092.044-.186.085-.281.12l-.039.015c-.1.036-.2.069-.3.1l-.026.006a2.822,2.822,0,0,1-.324.065,4.273,4.273,0,0,1-.554.034,5.993,5.993,0,0,1-.909-.068c-.1-.015-.2-.033-.306-.052l-.108-.019c-.265-.052-.532-.113-.8-.178l-.339-.082c-.182-.044-.366-.087-.55-.129l-.109-.025h0l-.078-.016-.122-.027-.117-.023-.02,0-.014,0-.108-.021-.252-.045-.075-.011-.187-.028-.095-.011h-.007l-.163-.019-.109-.01-.049,0-.112-.008-.108-.006-.171,0h-.1c-.071,0-.142,0-.214,0l-.057,0c-.091,0-.182.011-.274.021l-.072.008q-.089.01-.178.024l-.026,0-.1.017c-.061.011-.121.023-.182.036l-.105.025c-.06.014-.121.03-.182.048l-.1.03c-.066.02-.131.042-.2.066-.03.01-.06.02-.089.031-.1.035-.191.074-.288.117a6.373,6.373,0,0,0-1.921,1.722,6.735,6.735,0,0,0-.863,1.546c-.033.082-.065.165-.094.249-.049.141-.1.283-.137.426,0,.015-.008.031-.012.047q-.066.243-.114.49c-.033.172-.059.345-.078.519-.01.094-.02.188-.026.282a6.1,6.1,0,0,0,0,.761c0,.023,0,.046,0,.069,0,.065.007.129.014.194.019.18.044.361.081.54.013.066.031.128.047.192s.028.124.045.183h0a5.287,5.287,0,0,0,.525,1.243,7.068,7.068,0,0,0,3.159,2.73,11.992,11.992,0,0,0,1.194.451l-.05.033c-.073.018-.159.041-.254.068-.144.04-.309.091-.492.152-.205.069-.432.152-.671.251a8.18,8.18,0,0,0-2,1.157q-.12.1-.236.2c-.131.118-.257.244-.377.376-.014.015-.028.029-.042.044l-.054.062c-.045.053-.09.108-.134.163l-.052.067c-.058.076-.114.153-.167.233s-.1.16-.15.242a4.145,4.145,0,0,0-.529,2.4l0-.01v-.007l.007-.035,0-.008c0-.014.007-.031.011-.05l0-.012.018-.073,0-.018.026-.093h0c.009-.033.021-.069.033-.106l.008-.023c.012-.037.026-.077.041-.117l.008-.019q.021-.057.046-.118l.008-.019c.018-.044.038-.089.058-.134l.013-.028c.022-.047.045-.094.07-.142h0l0-.006c.037-.072.08-.145.125-.218.017-.028.033-.056.052-.083l.014-.023h0c.038-.058.079-.115.122-.172s.073-.093.112-.139l.038-.043c.031-.035.063-.07.1-.1l.041-.041c.046-.045.093-.089.143-.131l0,0h0a6.535,6.535,0,0,0-.487,3.5s0,0,0-.013v-.01c0-.009,0-.019,0-.032s0-.006,0-.008,0-.034,0-.056a.065.065,0,0,1,0-.009c0-.023,0-.048,0-.077,0,0,0-.006,0-.008,0-.029,0-.061.006-.1a.057.057,0,0,1,0-.009c0-.035.006-.072.01-.11v-.01c0-.039.009-.079.015-.121l0-.011c.007-.045.014-.091.023-.139l0-.011,0-.024h0c.011-.054.023-.109.037-.165l0-.011c.015-.055.03-.11.048-.165l.016-.051.012-.035h0q.025-.068.054-.137l0-.007h0a2.066,2.066,0,0,1,.092-.186c.009-.016.018-.032.027-.048a1.786,1.786,0,0,1,.116-.175l0,0h0a9.44,9.44,0,0,0-.037,1.051c0,.09.007.182.012.275,0,.062.008.124.013.186a7.537,7.537,0,0,1,.313-1.728,7.531,7.531,0,0,0-.313,1.729h0a7.685,7.685,0,0,0,.021,1.22,8.72,8.72,0,0,0,.529,2.228,2.9,2.9,0,0,1,.119-1.8c.035.082.073.164.112.247.032.267.086.646.164,1.063a7.553,7.553,0,0,0,1.825,4.248,2.492,2.492,0,0,1-.452-1.6c.056.119.111.226.164.318a10.408,10.408,0,0,0,1.25,1.885s-.426-.826-.327-1a11.412,11.412,0,0,0,1.833,1.9l-.582-.964-.013-.028c2.021,1.465,4.793,2.009,8.222,1.054a16.772,16.772,0,0,0,1.826-.629c.385-.166.766-.35,1.144-.552l.055-.03q.4-.217.786-.463l.006,0q.293-.184.58-.385c.32-.226.638-.464.947-.722h0l.055-.047q.46-.4.86-.824a12.95,12.95,0,0,0,.955-1.129l.021-.027q.1-.14.2-.279l.019-.027.062-.093c.092-.133.184-.266.269-.4l.062-.1c.044-.07.087-.14.13-.209s.065-.109.1-.162l.1-.175c.06-.106.119-.211.175-.315l.065-.122c.043-.081.085-.162.124-.241l.055-.111.016-.035c.05-.1.1-.2.143-.3l.009-.021a3.32,3.32,0,0,0,.415-.461c.016-.021.032-.042.046-.063a1.628,1.628,0,0,0,.322-.925" transform="translate(-94.282 -78.967)" fill="#fce9c9"/>
    <path id="Path_56310" data-name="Path 56310" d="M42.953,158.989a.476.476,0,0,0-.195.206c-.025.04-.05.085-.075.131a6.841,6.841,0,0,0-.345.813c.013-.158.03-.321.049-.486,0-.019,0-.038.007-.057.02-.168.043-.336.068-.5,0-.02.006-.04.009-.06.029-.189.06-.377.092-.559,0-.024.008-.047.012-.07l0-.012.011-.063c.005-.031.011-.063.017-.093.026-.144.053-.283.079-.415s.047-.232.069-.338l.007-.034c0-.017.007-.032.01-.048s.007-.032.01-.048v-.006l.017-.079,0-.007c0-.025.01-.046.015-.069s.016-.074.023-.108l0-.01c.006-.028.012-.056.018-.081s.016-.07.023-.1h0l.012-.051v0c0-.015.007-.031.01-.044l.02-.087,0-.021,0-.008.006-.024,0-.017v0l0,0-.037.033c-.032.029-.065.057-.1.089l-.033.037a1.6,1.6,0,0,0-.1.126l-.017.022c-.04.056-.077.114-.113.174h0l0,.008h0l-.014.026-.024.044c-.021.037-.042.073-.06.111h0v0l-.007.014-.007.014c-.029.06-.055.119-.079.177a4.787,4.787,0,0,0-.163.451c-.014.046-.027.09-.038.129-.023.084-.04.15-.047.182v0l-.005.022h0l0-.025c0-.05.009-.1.013-.15.008-.1.014-.21.026-.314.009-.088.023-.173.035-.26l.012-.081c.005-.04.011-.08.018-.12s.014-.074.021-.11v0h0l.008-.041,0-.011c.008-.045.017-.09.025-.135,0-.017.006-.035.01-.052l.006-.031v-.006l.009-.044c0-.018.009-.036.012-.053.015-.066.031-.13.046-.195l0-.011c.011-.048.022-.1.034-.144v-.005l0-.014c.025-.1.053-.193.081-.289l.015-.053c.005-.018.01-.036.016-.054.046-.156.1-.31.149-.46l.007-.019c.045-.128.091-.254.139-.378l.005-.014c.022-.055.044-.107.065-.161l0-.008c.033-.08.065-.161.1-.239h0l0-.01c.009-.02.03-.067.062-.137h0l0-.009h0l.037-.082.059-.132.018-.038c-.028-.015-.057-.029-.086-.043l-.016-.008-.03-.015a3.225,3.225,0,0,0-.585-.213l-.032-.008a3.113,3.113,0,0,0-.4-.073c-.079-.009-.158-.016-.238-.019s-.133,0-.2,0c-.1,0-.2.011-.3.021l-.092.013c-.049.007-.1.017-.145.026l-.057.011-.1.023c-.066.016-.13.034-.194.054-.03.009-.059.017-.088.027-.086.03-.171.063-.254.1-.033.015-.064.032-.1.047l-.113.058-.038.02c-.041.023-.081.047-.121.071s-.074.046-.11.071-.087.058-.128.089l-.076.06c-.068.054-.132.111-.2.17-.033.03-.064.062-.1.093-.055.055-.11.111-.16.17l-.026.029c-.027.032-.052.066-.076.1l0,0,0,0c-.017.022-.035.044-.052.067l-.007.009-.007.009h0a3.216,3.216,0,0,0-.269.454c-.011.023-.022.046-.032.069q-.054.116-.1.238c-.012.032-.025.063-.036.1h0c-.027.082-.051.166-.072.252l-.008.032-.008.04v0c-.014.062-.028.124-.037.187,0,.031-.008.063-.012.094v.009c0,.033-.007.067-.011.1s-.007.051-.009.077c-.007.1-.011.2-.008.3,0,.079.009.156.016.233v0l0,.036c0,.043.012.085.018.127a3.126,3.126,0,0,0,.1.451,3.079,3.079,0,0,0,.117.325,3.2,3.2,0,0,0,.3.55,3.24,3.24,0,0,0,.928.911,3.317,3.317,0,0,0,1.389.494c.056.006.113.01.169.014.085.006.169.009.256.007s.157-.012.235-.019c.045,0,.091,0,.135-.011a3.193,3.193,0,0,0,.331-.066l.025-.005c.045-.012.087-.028.131-.042a3.123,3.123,0,0,0,.4-.151l.028-.012c.036-.015.073-.03.108-.048l0,0q-.094-.518-.144-1.062c0-.026-.006-.051-.009-.076" transform="translate(-31.672 -126.432)" fill="#fce9c9"/>
    <path id="Path_56311" data-name="Path 56311" d="M141.5,21.245l.06.03v-.008l-.059-.022" transform="translate(-116.77 -16.814)" fill="#4d94c3"/>
    <path id="Path_56312" data-name="Path 56312" d="M168.42,190.517l-.012-.047-.023-.086a3.164,3.164,0,0,0-.331-.741,1.889,1.889,0,0,0-.258-.34c.024-.08.042-.159.059-.236.021-.1.038-.2.049-.3a2.886,2.886,0,0,0-.263-1.6c-.025-.051-.048-.094-.069-.132-.112.079-.224.158-.337.234a17.346,17.346,0,0,1-7.162,2.78,20.732,20.732,0,0,1-5.658.062l.034.01a1.905,1.905,0,0,0-1.507,1.3l.02.012-.1.763a2.365,2.365,0,0,0,1.044,2.02,8.606,8.606,0,0,0,1.983.469,15.742,15.742,0,0,0,4.328-.123h.016a18.051,18.051,0,0,0,6.95-2.758,9.954,9.954,0,0,0,1.255-1l.014-.013.025-.024c-.021-.1-.041-.182-.057-.249" transform="translate(-126.155 -153.683)" fill="#fdfcfb"/>
    <path id="Path_56313" data-name="Path 56313" d="M134.29,108.975c-1.1-.67-1.261-.892-1.158-2.712.037-.655.108-1.516.181-2.684.01-.152.014-.3.017-.438,0-.034,0-.067,0-.1,0-.134,0-.265-.006-.391v-.036l0-.039q-.008-.148-.021-.288c0-.041-.008-.082-.012-.123-.011-.1-.023-.2-.039-.29-.008-.048-.017-.094-.026-.14s-.02-.1-.031-.154-.022-.1-.034-.147h0a2.81,2.81,0,0,0-.561-.618l-.043-.032-.009-.007-.032-.024-.011-.008c-.031-.024-.065-.048-.1-.07s-.07-.046-.106-.068a2.862,2.862,0,0,0-1.076-.38,3.613,3.613,0,0,0-.664-.034c-.106,0-.213.013-.32.026a4.92,4.92,0,0,0-.859.181l-.295.2-.252.173-.041.028c-.085.057-.172.113-.258.169l-.044.027c-.087.054-.175.107-.263.157l-.046.026c-.089.05-.179.1-.27.141l-.045.021c-.092.044-.186.085-.281.12l-.039.015c-.1.036-.2.069-.3.1l-.026.006a2.817,2.817,0,0,1-.324.065,4.27,4.27,0,0,1-.554.034,5.993,5.993,0,0,1-.909-.068c-.1-.015-.2-.033-.306-.052l-.108-.019c-.265-.052-.532-.113-.8-.178l-.339-.082c-.182-.044-.366-.087-.55-.129l-.109-.025c-.154.008-.309.023-.465.043l-.034,0a6.88,6.88,0,0,0-1.354.322l-.074.025c-.07.025-.14.052-.209.08-.093.037-.187.075-.279.117a7.73,7.73,0,0,0-1.867,1.173,8.156,8.156,0,0,0-.668.635,7.948,7.948,0,0,0-.849,1.077l-.04.063q-.2.307-.362.625c-.039.076-.079.152-.116.228l-.007.015a7.458,7.458,0,0,0-.308.76c0,.015-.009.031-.014.046-.013.037-.022.075-.034.112-.038.119-.072.239-.1.358s-.062.249-.087.373c0,.027-.011.054-.016.08-.014.076-.028.152-.04.228a6.514,6.514,0,0,0-.072.837c0,.07,0,.14,0,.209a5.287,5.287,0,0,0,.525,1.243,7.068,7.068,0,0,0,3.159,2.73,11.986,11.986,0,0,0,1.194.451l.011.018h0l.027-.021c.053-.04.106-.08.16-.12l.058-.043c.056-.041.113-.082.171-.123l.06-.041c.059-.041.119-.082.18-.123l.062-.04c.062-.041.125-.082.189-.122l.064-.04.2-.121.069-.041.2-.118.075-.042c.068-.039.138-.076.209-.114l.085-.045.212-.11.092-.046.216-.106.1-.049.217-.1.117-.052.217-.094.131-.055.216-.089.147-.058.214-.082.164-.061.211-.077.183-.063c.069-.024.137-.048.207-.07l.2-.066.2-.064.226-.069.192-.057.249-.071c.042-.011.082-.024.124-.035.326-.82,1.292-2.853,2.948-3.075a3.655,3.655,0,0,1,.491-.037c.038,0,.079,0,.115,0a3.707,3.707,0,0,1-.042-.368c-.052-.876.217-1.6.6-1.627.3-.024.534.41.574.562a3.035,3.035,0,0,1,.215.984,3.14,3.14,0,0,1-.077.928c.033.034.061.073.091.109a2.438,2.438,0,0,1,.428,1.586c.147-.015.3-.028.45-.041l.115-.011.024,0,.066-.005q.281-.023.569-.044h.009q.653-.045,1.343-.076a3.484,3.484,0,0,0-.392-.256" transform="translate(-95.901 -81.986)" fill="#efcfa5"/>
    <path id="Path_56314" data-name="Path 56314" d="M204.694,220.211a12.286,12.286,0,0,1-2.235,1.579c-.376.207-.749.387-1.116.546a14.157,14.157,0,0,1-2.291.772,12.184,12.184,0,0,1-2.6.372,4.626,4.626,0,0,0,2.612.392,6.461,6.461,0,0,0,.84-.135,5.538,5.538,0,0,1-.108.85,4.513,4.513,0,0,1-.243.8l-.008.021h0a3.916,3.916,0,0,1-.44.792c-.018.025-.036.052-.054.076l.055-.03q.4-.217.786-.463l.006,0q.293-.184.58-.385c.32-.226.638-.464.947-.722h0l.055-.047q.46-.4.86-.824a12.946,12.946,0,0,0,.955-1.128l.021-.027q.1-.14.2-.279l.019-.027.062-.093c.092-.133.184-.266.27-.4l.062-.1c.044-.07.087-.14.13-.209s.065-.109.1-.162l.1-.176c.06-.106.118-.211.175-.315l.065-.122c.043-.081.085-.162.125-.241l.055-.111.016-.035c.05-.1.1-.2.143-.3-.05.046-.1.089-.15.133" transform="translate(-162.139 -180.96)" fill="#efcfa5"/>
    <path id="Path_56315" data-name="Path 56315" d="M118.68,173.814c-.205.069-.432.152-.671.251a8.181,8.181,0,0,0-2,1.157q-.12.1-.236.2c-.131.118-.257.244-.377.376-.014.015-.028.029-.042.044l-.054.062c-.045.053-.09.108-.134.163l-.052.067c-.058.076-.114.153-.167.233s-.1.16-.15.242a4.145,4.145,0,0,0-.529,2.4l0-.01V179l.007-.035,0-.008c0-.014.007-.031.011-.05l0-.012.018-.073,0-.018.026-.093h0c.009-.033.021-.069.033-.106l.008-.023c.012-.037.026-.077.041-.117l.008-.019q.021-.057.046-.118l.008-.019c.018-.044.038-.089.058-.134l.013-.028c.022-.047.045-.094.07-.142h0l0-.006c.037-.072.08-.145.125-.218.017-.028.033-.056.052-.083l.014-.023h0c.038-.058.079-.115.122-.172s.073-.093.112-.139l.038-.043c.031-.035.063-.07.1-.1l.041-.041c.046-.045.093-.089.143-.131l0,0h0a6.535,6.535,0,0,0-.487,3.5s0,0,0-.013v-.01c0-.009,0-.019,0-.032s0-.006,0-.008,0-.034,0-.056a.065.065,0,0,1,0-.009c0-.023,0-.048,0-.077,0,0,0-.006,0-.008,0-.029,0-.061.006-.1a.057.057,0,0,1,0-.009c0-.035.006-.072.01-.11v-.01c0-.039.009-.079.015-.122l0-.011c.007-.045.014-.091.023-.139l0-.011,0-.024h0c.011-.054.023-.109.037-.165l0-.011c.015-.055.03-.11.048-.165l.016-.051.012-.035h0q.025-.068.054-.137l0-.007h0a2.069,2.069,0,0,1,.092-.186c.009-.016.018-.032.027-.048a1.788,1.788,0,0,1,.116-.175l0,0h0a9.44,9.44,0,0,0-.037,1.051c0,.09.007.182.012.275,0,.062.008.124.013.186a7.537,7.537,0,0,1,.313-1.728c.046-.148.1-.293.148-.435l.022-.062c.051-.135.1-.266.161-.395l.032-.072q.086-.191.179-.375l.029-.056c.132-.255.274-.5.422-.726l.032-.05c.056-.086.114-.169.171-.251.015-.022.029-.045.045-.066l.041-.058q.11-.152.221-.3l.035-.045c.077-.1.154-.194.232-.285l0,0q.146-.173.291-.33.106-.115.211-.222l.08-.08c.166-.168.326-.318.476-.452a9.116,9.116,0,0,1,.919-.731c-.073.018-.159.041-.254.068-.144.04-.309.091-.492.152" transform="translate(-94.282 -142.584)" fill="#efcfa5"/>
    <path id="Path_56316" data-name="Path 56316" d="M190.346,145.441a1.038,1.038,0,0,0-.023-.125c-.07-.285-.352-.957-1.461-.851a1.9,1.9,0,0,0-1.649,1.366c-.021.066-.029.108-.029.108l.031.027a.6.6,0,0,1,.682.051.9.9,0,0,1,.272.265h0a.423.423,0,0,1,.056.435.272.272,0,0,1-.055.067s.045.017.12.039a1.592,1.592,0,0,0,1.7-.342c.023-.03.047-.058.068-.091a.388.388,0,0,1-.149-.354.839.839,0,0,1,.036-.25c.079-.262.259-.417.4-.346" transform="translate(-154.487 -118.528)" fill="#efcfa5"/>
    <path id="Path_56317" data-name="Path 56317" d="M163.29,172.968c-.75.155-1.407.27-1.916.352l.085.011a20.746,20.746,0,0,0,3.846.134,16.886,16.886,0,0,0,10.472-4.334l.01-.013v-.006a1.6,1.6,0,0,0-.364-1.134,1.362,1.362,0,0,0-.208-.187l-.039-.024c-.094-.052-.175-.105-.251-.158s-.123-.079-.175-.118l-.008-.011a6.689,6.689,0,0,1-.757.9c-.1.1-.208.2-.315.3a13.786,13.786,0,0,1-3.626,2.231,34.383,34.383,0,0,1-6.753,2.061" transform="translate(-133.18 -137.537)" fill="#efcfa5"/>
    <path id="Path_56318" data-name="Path 56318" d="M43.7,156.667c-.032.029-.065.057-.1.089l-.033.037a1.6,1.6,0,0,0-.1.126l-.017.022c-.04.056-.077.114-.113.174h0l0,.008h0l-.014.026-.024.044c-.021.037-.042.073-.06.111h0v0l-.007.014-.007.014c-.029.06-.055.119-.079.177a4.788,4.788,0,0,0-.163.451c-.014.046-.027.09-.038.129-.023.084-.04.15-.047.182v0l-.005.022h0l0-.025c0-.05.009-.1.013-.15.008-.1.014-.21.026-.314.009-.088.023-.173.035-.26l.012-.081c.005-.04.011-.08.018-.12s.014-.074.021-.11v0h0l.008-.041,0-.011c.008-.045.017-.09.025-.135,0-.017.006-.035.01-.052l.006-.031v-.006l.009-.044c0-.018.009-.036.012-.053.015-.066.031-.13.046-.195l0-.011c.011-.048.022-.1.034-.144v-.005l0-.014c.025-.1.053-.193.081-.289l.015-.053c.005-.018.01-.036.016-.054.046-.156.1-.31.149-.46l.007-.019c.045-.128.091-.254.139-.378l.005-.014c.022-.055.044-.107.065-.161l0-.008c.033-.08.065-.161.1-.239h0l0-.01c.009-.02.03-.067.062-.137h0l0-.009h0l.037-.082.059-.132.018-.038c-.028-.015-.057-.029-.086-.043l-.016-.008-.03-.015a3.225,3.225,0,0,0-.585-.213l-.032-.008a3.113,3.113,0,0,0-.4-.073c-.079-.009-.158-.016-.238-.019s-.133,0-.2,0c-.1,0-.2.011-.3.021l-.092.013c-.049.007-.1.017-.145.026l-.057.011-.1.023c-.066.016-.13.034-.194.054-.03.009-.059.017-.088.027-.086.03-.171.063-.254.1-.033.015-.064.032-.1.047l-.113.058-.038.02c-.041.023-.081.047-.121.071s-.074.046-.11.071-.087.058-.128.089l-.076.06c-.068.054-.132.111-.2.17-.033.03-.064.062-.1.093-.055.055-.109.111-.16.17l-.026.029c-.027.032-.052.066-.076.1l0,0,0,0c-.017.022-.035.044-.052.067l-.007.009-.007.009h0a3.237,3.237,0,0,0-.269.454c-.011.023-.022.045-.032.068-.036.077-.069.157-.1.238-.012.032-.025.063-.036.1h0c.006.021.013.041.02.061.022.072.045.142.068.209l.008.023.009.024c.025.07.051.136.077.2a5.572,5.572,0,0,0,.249.535l.038.07.009.017.012.02c.063.113.125.212.183.3.092.138.172.243.229.314l.033.04.024.027.035.04c-.008-.035-.013-.07-.02-.106a4.343,4.343,0,0,1-.085-.751v-.043c0-.158,0-.314.012-.465h0c.016.058.033.115.051.171.026.084.054.166.082.245l.01.028,0,.01a5.409,5.409,0,0,0,.4.845,4.456,4.456,0,0,0,.389.571l.045.053.038.043a4.25,4.25,0,0,1-.1-.8c0-.088-.007-.176-.005-.263,0-.111.007-.219.016-.327h0c.048.184.1.354.163.514l0,.012a5.285,5.285,0,0,0,.656,1.25l.021.028.084.111c.017.021.033.042.047.058l.041.049.022.025-.007-.038c-.008-.038-.016-.075-.023-.113-.026-.135-.043-.269-.056-.4-.009-.089-.017-.177-.02-.265s0-.165,0-.247c0-.015,0-.029,0-.044,0-.042,0-.085,0-.127l0-.026,0-.019c.007-.108.016-.215.029-.319h0c.021.069.042.137.065.2.017.05.034.1.052.145l0,.01.006.017.011.029c.022.057.044.112.066.166.043.1.086.2.13.286.053.11.107.212.16.3.03.052.06.1.088.149s.072.115.106.165.06.087.087.125l.021.028c.026.035.05.068.072.1l.045.056c.036.043.061.072.072.084l.007.007.023.016c0-.019,0-.038.007-.057.02-.168.043-.336.068-.5,0-.02.006-.04.009-.06.029-.189.06-.377.092-.559,0-.024.008-.047.012-.07l0-.012.011-.063c.005-.031.011-.063.017-.093.026-.144.053-.283.079-.415s.047-.232.069-.338l.007-.034c0-.017.007-.032.01-.048s.007-.032.01-.048v-.006l.017-.079,0-.007c0-.025.01-.046.015-.069s.016-.074.024-.108l0-.01c.006-.028.012-.056.018-.081s.016-.07.023-.1h0l.012-.051v0c0-.015.007-.031.01-.044l.02-.087,0-.021,0-.008.006-.024,0-.017v0l0,0-.037.033" transform="translate(-32.467 -126.432)" fill="#efcfa5"/>
    <path id="Path_56319" data-name="Path 56319" d="M157.559,206.257c.281-.1.526-.176.716-.259.381-.162.585-.271.573-.312s-.243-.01-.647.081c-.2.047-.448.089-.73.152-.14.034-.3.053-.456.084s-.332.064-.511.083c-.354.05-.76.1-1.19.146l-.656.054-.7.035a14.739,14.739,0,0,1-3.09-.213,6.448,6.448,0,0,1-1.87-.667l-.02-.012a1.906,1.906,0,0,1,1.507-1.3l-.034-.01-.06-.007c-.172-.021-.324-.042-.454-.06l-.243-.032c-.066-.008-.113-.013-.141-.015a1.355,1.355,0,0,0-1.241.818c-.019.038-.037.077-.055.116a2.36,2.36,0,0,0-.19.793,2.294,2.294,0,0,0,.512,1.621,3.241,3.241,0,0,0,1.365.869,2.365,2.365,0,0,1-1.044-2.02,8.783,8.783,0,0,0,1.851.517,13.342,13.342,0,0,0,3.233.175c.247-.021.488-.039.722-.062l.682-.088c.428-.072.824-.142,1.195-.224.185-.035.357-.085.519-.13s.317-.083.458-.134" transform="translate(-122.19 -167.689)" fill="#efcfa5"/>
    <path id="Path_56320" data-name="Path 56320" d="M196.848,131.16a1.756,1.756,0,0,1,1.271.479,3.116,3.116,0,0,0,.077-.929,3.04,3.04,0,0,0-.215-.984c-.04-.152-.277-.586-.574-.562-.384.023-.652.752-.6,1.627a3.491,3.491,0,0,0,.042.369" transform="translate(-162.426 -105.906)" fill="#59473d"/>
    <path id="Path_56321" data-name="Path 56321" d="M202.848,150.654a.389.389,0,0,0,.149.354c.143.071.32-.084.4-.347.007-.023.012-.046.017-.068h0c.051-.238,0-.469-.129-.534s-.32.084-.4.346a.856.856,0,0,0-.036.25" transform="translate(-167.419 -123.141)" fill="#59473d"/>
    <path id="Path_56322" data-name="Path 56322" d="M186.92,153.25a.892.892,0,0,0,.28.28.6.6,0,0,0,.689.046.263.263,0,0,0,.055-.067.423.423,0,0,0-.055-.435h0a.9.9,0,0,0-.272-.265.6.6,0,0,0-.682-.051.274.274,0,0,0-.062.072.419.419,0,0,0,.048.421h0" transform="translate(-154.198 -125.314)" fill="#59473d"/>
    <path id="Path_56323" data-name="Path 56323" d="M243.914,176.847v-.005l-.017.024.007-.006.009-.013" transform="translate(-201.306 -145.266)" fill="#59473d"/>
    <path id="Path_56324" data-name="Path 56324" d="M161.479,182.488l-.014.013a9.989,9.989,0,0,1-1.255,1,18.047,18.047,0,0,1-6.95,2.757h-.016a15.736,15.736,0,0,1-4.328.123,8.613,8.613,0,0,1-1.983-.469,3.246,3.246,0,0,1-1.365-.869,2.292,2.292,0,0,1-.512-1.621,2.362,2.362,0,0,1,.19-.793c.018-.04.036-.079.055-.116a1.355,1.355,0,0,1,1.241-.818c.027,0,.075.007.14.015l.243.032c.13.018.282.038.454.059l.059.007a20.735,20.735,0,0,0,5.658-.062,17.347,17.347,0,0,0,7.162-2.78q.17-.115.337-.234l1.174-1.755a16.885,16.885,0,0,1-10.465,4.328,20.726,20.726,0,0,1-3.846-.133l-.085-.011c-.255-.032-.463-.062-.612-.081-.074-.009-.134-.016-.179-.019a1.72,1.72,0,0,0-.634.075,1.993,1.993,0,0,0-1.013.764,2.9,2.9,0,0,0-.52,1.638,2.947,2.947,0,0,0,.379,1.493c.011.019.021.039.032.058.031.052.065.1.1.154.047.069.1.137.151.2a5.837,5.837,0,0,0,3.76,1.565,16.05,16.05,0,0,0,4.171-.078c4.536-.82,6.692-2.285,7.688-3.315.073-.075.14-.148.2-.218a3.471,3.471,0,0,0,.576-.865l.008-.019c.015-.035.021-.054.021-.055l-.024.024" transform="translate(-119.181 -145.381)" fill="#59473d"/>
    <path id="Path_56325" data-name="Path 56325" d="M138.075,117.182a1.924,1.924,0,0,0-.457-.172,2.71,2.71,0,0,0-.312-.057l-.116-.012a3.968,3.968,0,0,0-.99.043c-.1.023-.193.048-.284.076a3.137,3.137,0,0,0-1.574,1.028,3.364,3.364,0,0,0-.587,1.114c-.011.033-.02.066-.029.1q-.041.146-.072.287a4.834,4.834,0,0,0-.1.836,3.851,3.851,0,0,0,.016.517c.125-.275.257-.527.392-.763a7.168,7.168,0,0,1,1.068-1.435,5.354,5.354,0,0,1,2.014-1.332,3.545,3.545,0,0,1,1.031-.229" transform="translate(-110.212 -95.805)" fill="#e1b27e"/>
    <path id="Path_56326" data-name="Path 56326" d="M197.127,109.981l-.024-.032a1.342,1.342,0,0,0-.294-.276,1.47,1.47,0,0,0-1.176-.179,2.172,2.172,0,0,0-.986.554,2.4,2.4,0,0,1,2.232.353,3.152,3.152,0,0,1,.314.257,3.879,3.879,0,0,1,.32.334,2.268,2.268,0,0,0-.33-.931c-.017-.027-.036-.054-.056-.079" transform="translate(-160.648 -89.631)" fill="#e1b27e"/>
    <path id="Path_56327" data-name="Path 56327" d="M157.931,140.551q.623-.193,1.348-.356a4.056,4.056,0,0,0,.045-1.336c-.137-1.164-.662-2.055-1.172-1.992s-.811,1.057-.673,2.22a3.815,3.815,0,0,0,.452,1.464" transform="translate(-129.937 -112.263)" fill="#59473d"/>
    <path id="Path_56328" data-name="Path 56328" d="M123.642,8.75l-1.069.242.224,1.961-2.85-1.45-1.173.35.018.021,3.461,3.945.033-.021.045-.028q.162-.1.324-.2l.114-.072q.235-.144.472-.285l-1.47-1.684,2.379,1.163.009,0,.214-.118-.219-1.7,1.079,1.249.013-.006.271-.134.028-.014.044-.022.046-.023.115-.057.023-.011c.128-.062.254-.121.379-.18L123.642,8.75" transform="translate(-98.013 -6.499)" fill="#face56"/>
    <path id="Path_56329" data-name="Path 56329" d="M140.554,10.2l-.007-.062.007.062h0" transform="translate(-115.986 -7.642)" fill="#4d94c3"/>
    <path id="Path_56330" data-name="Path 56330" d="M58.265,8.6l.158-.035a3.129,3.129,0,0,0-.933-.253,7.369,7.369,0,0,0-2.679.262,17.878,17.878,0,0,0-3.452,1.335,35.715,35.715,0,0,0-7.9,5.559c-.927.845-1.791,1.709-2.586,2.575L44.1,22c.871-.962,1.822-1.918,2.847-2.852A41.806,41.806,0,0,1,51.1,15.815a32.4,32.4,0,0,1,3.932-2.377l-.56-2.524.015-1.43-.018-.021,1.173-.35,2.291,1.172-.065-.8.4-.884" transform="translate(-33.705 -6.11)" fill="#4d94c3"/>
    <path id="Path_56331" data-name="Path 56331" d="M138.656,10.135l-.4.884.065.8.559.278-.224-1.961" transform="translate(-114.096 -7.642)" fill="#141c26"/>
    <path id="Path_56332" data-name="Path 56332" d="M135.956,24.646l2.379,1.163-.909.521-1.47-1.684" transform="translate(-112.197 -19.622)" fill="#141c26"/>
    <path id="Path_56333" data-name="Path 56333" d="M149.616,20.874l.219,1.7.86-.45-1.079-1.249" transform="translate(-123.473 -16.508)" fill="#141c26"/>
    <path id="Path_56334" data-name="Path 56334" d="M90.341,16q.22-.009.431,0a5.08,5.08,0,0,1,1.133.144l.058.013h0l.014,0,.035.01.032.01c-.042-.028-.085-.054-.128-.08a5.462,5.462,0,0,0-1.259-.309,13.177,13.177,0,0,0-6.024,1.067l-.233.1-.358.155c-.2.089-.408.183-.617.28l-.091.043c-.126.059-.251.118-.379.18l-.023.011-.115.057-.046.023-.044.022-.028.014-.271.134-.013.006-.008,0-.066.032-.012.006-.049.026c-.14.071-.279.144-.418.218l-.291.156-.016.009-.214.118-.009,0q-.349.193-.694.395l-.072.042-.061.036-.056.034-.024.015q-.237.141-.472.285l-.114.072q-.163.1-.324.2l-.045.028-.033.021q-.45.288-.894.591-.733.5-1.448,1.031l-.185.139c-1.249.94-2.455,1.949-3.611,3-1.22,1.107-2.383,2.257-3.481,3.413-.595.6-1.106,1.13-1.523,1.579A15.139,15.139,0,0,0,67.022,30.8c.008.008.081-.06.212-.191-.108.125-.216.251-.322.376a80.193,80.193,0,0,1,6.019-5.812c1.319-1.139,2.693-2.235,4.111-3.252h0q.932-.669,1.889-1.288.306-.2.615-.391c.1-.064.206-.126.309-.189l.175-.107.331-.2.325-.19.17-.1c.138-.079.276-.156.415-.233l.249-.137h0c.262-.143.525-.28.789-.415l.066-.033.124-.063.164-.083.062-.031.009,0,.111-.054.023-.011.013-.007.343-.167.063-.03.11-.052.394-.184.108-.05.056-.025.111-.05c.153-.069.3-.137.454-.2s.268-.114.4-.17c.751-.316,1.458-.581,2.114-.792A12.789,12.789,0,0,1,90.341,16" transform="translate(-55.197 -12.26)" fill="#fdfcfb"/>
  </g>
</svg>
