<svg xmlns="http://www.w3.org/2000/svg" width="52" height="52" viewBox="0 0 52 52">
  <g id="_4" data-name="4" transform="translate(-334 -10517.754)">
    <rect id="Rectangle_1572" data-name="Rectangle 1572" width="52" height="52" rx="26" transform="translate(334 10517.754)" fill="#3517c6"/>
    <g id="Group_3187" data-name="Group 3187" transform="translate(342.721 10526.674)">
      <g id="Group_1147" data-name="Group 1147">
        <path id="Path_2588" data-name="Path 2588" d="M360.058,164.45l-.424,1.272-1.34.01a.181.181,0,0,0-.106.326l1.078.8-.4,1.278a.181.181,0,0,0,.277.2l1.09-.779,1.091.779a.181.181,0,0,0,.277-.2l-.4-1.278,1.078-.8a.181.181,0,0,0-.106-.326l-1.34-.01-.424-1.272A.181.181,0,0,0,360.058,164.45Z" transform="translate(-329.884 -156.59)" fill="#fc5"/>
        <path id="Path_2589" data-name="Path 2589" d="M360.058,164.45l-.424,1.272-1.34.01a.181.181,0,0,0-.106.326l1.078.8-.4,1.278a.181.181,0,0,0,.277.2l1.09-.779,1.091.779a.181.181,0,0,0,.277-.2l-.4-1.278,1.078-.8a.181.181,0,0,0-.106-.326l-1.34-.01-.424-1.272A.181.181,0,0,0,360.058,164.45Z" transform="translate(-328.239 -148.854)" fill="#fc5"/>
        <path id="Path_2595" data-name="Path 2595" d="M360.058,164.45l-.424,1.272-1.34.01a.181.181,0,0,0-.106.326l1.078.8-.4,1.278a.181.181,0,0,0,.277.2l1.09-.779,1.091.779a.181.181,0,0,0,.277-.2l-.4-1.278,1.078-.8a.181.181,0,0,0-.106-.326l-1.34-.01-.424-1.272A.181.181,0,0,0,360.058,164.45Z" transform="translate(-358.114 -148.854)" fill="#fc5"/>
        <path id="Path_2590" data-name="Path 2590" d="M360.058,164.45l-.424,1.272-1.34.01a.181.181,0,0,0-.106.326l1.078.8-.4,1.278a.181.181,0,0,0,.277.2l1.09-.779,1.091.779a.181.181,0,0,0,.277-.2l-.4-1.278,1.078-.8a.181.181,0,0,0-.106-.326l-1.34-.01-.424-1.272A.181.181,0,0,0,360.058,164.45Z" transform="translate(-335.707 -136.3)" fill="#fc5"/>
        <path id="Path_2598" data-name="Path 2598" d="M360.058,164.45l-.424,1.272-1.34.01a.181.181,0,0,0-.106.326l1.078.8-.4,1.278a.181.181,0,0,0,.277.2l1.09-.779,1.091.779a.181.181,0,0,0,.277-.2l-.4-1.278,1.078-.8a.181.181,0,0,0-.106-.326l-1.34-.01-.424-1.272A.181.181,0,0,0,360.058,164.45Z" transform="translate(-335.707 -162.268)" fill="#fc5"/>
        <path id="Path_2591" data-name="Path 2591" d="M360.058,164.45l-.424,1.272-1.34.01a.181.181,0,0,0-.106.326l1.078.8-.4,1.278a.181.181,0,0,0,.277.2l1.09-.779,1.091.779a.181.181,0,0,0,.277-.2l-.4-1.278,1.078-.8a.181.181,0,0,0-.106-.326l-1.34-.01-.424-1.272A.181.181,0,0,0,360.058,164.45Z" transform="translate(-343.176 -134.242)" fill="#fc5"/>
        <path id="Path_2599" data-name="Path 2599" d="M360.058,164.45l-.424,1.272-1.34.01a.181.181,0,0,0-.106.326l1.078.8-.4,1.278a.181.181,0,0,0,.277.2l1.09-.779,1.091.779a.181.181,0,0,0,.277-.2l-.4-1.278,1.078-.8a.181.181,0,0,0-.106-.326l-1.34-.01-.424-1.272A.181.181,0,0,0,360.058,164.45Z" transform="translate(-343.176 -164.326)" fill="#fc5"/>
        <path id="Path_2592" data-name="Path 2592" d="M360.058,164.45l-.424,1.272-1.34.01a.181.181,0,0,0-.106.326l1.078.8-.4,1.278a.181.181,0,0,0,.277.2l1.09-.779,1.091.779a.181.181,0,0,0,.277-.2l-.4-1.278,1.078-.8a.181.181,0,0,0-.106-.326l-1.34-.01-.424-1.272A.181.181,0,0,0,360.058,164.45Z" transform="translate(-350.645 -136.3)" fill="#fc5"/>
        <path id="Path_2597" data-name="Path 2597" d="M360.058,164.45l-.424,1.272-1.34.01a.181.181,0,0,0-.106.326l1.078.8-.4,1.278a.181.181,0,0,0,.277.2l1.09-.779,1.091.779a.181.181,0,0,0,.277-.2l-.4-1.278,1.078-.8a.181.181,0,0,0-.106-.326l-1.34-.01-.424-1.272A.181.181,0,0,0,360.058,164.45Z" transform="translate(-350.645 -162.268)" fill="#fc5"/>
        <path id="Path_2593" data-name="Path 2593" d="M360.058,164.45l-.424,1.272-1.34.01a.181.181,0,0,0-.106.326l1.078.8-.4,1.278a.181.181,0,0,0,.277.2l1.09-.779,1.091.779a.181.181,0,0,0,.277-.2l-.4-1.278,1.078-.8a.181.181,0,0,0-.106-.326l-1.34-.01-.424-1.272A.181.181,0,0,0,360.058,164.45Z" transform="translate(-356.057 -141.978)" fill="#fc5"/>
        <path id="Path_2596" data-name="Path 2596" d="M360.058,164.45l-.424,1.272-1.34.01a.181.181,0,0,0-.106.326l1.078.8-.4,1.278a.181.181,0,0,0,.277.2l1.09-.779,1.091.779a.181.181,0,0,0,.277-.2l-.4-1.278,1.078-.8a.181.181,0,0,0-.106-.326l-1.34-.01-.424-1.272A.181.181,0,0,0,360.058,164.45Z" transform="translate(-356.057 -156.59)" fill="#fc5"/>
        <path id="Path_2594" data-name="Path 2594" d="M360.058,164.45l-.424,1.272-1.34.01a.181.181,0,0,0-.106.326l1.078.8-.4,1.278a.181.181,0,0,0,.277.2l1.09-.779,1.091.779a.181.181,0,0,0,.277-.2l-.4-1.278,1.078-.8a.181.181,0,0,0-.106-.326l-1.34-.01-.424-1.272A.181.181,0,0,0,360.058,164.45Z" transform="translate(-329.884 -141.978)" fill="#fc5"/>
      </g>
      <path id="Path_2991" data-name="Path 2991" d="M67.005,4.428H66.46V3.08a3.078,3.078,0,1,0-6.156,0V4.428h-.545a.319.319,0,0,0-.318.319v5.976a.319.319,0,0,0,.318.319h7.246a.319.319,0,0,0,.318-.319V4.746A.319.319,0,0,0,67.005,4.428ZM63.879,8.065V9.337a.2.2,0,0,1-.2.2h-.591a.2.2,0,0,1-.2-.2V8.065a.86.86,0,1,1,.993,0Zm1.112-3.637H61.774V3.08a1.609,1.609,0,1,1,3.217,0Z" transform="translate(-46.568 11.041)" fill="#fdfcfb"/>
    </g>
  </g>
</svg>
