<svg xmlns="http://www.w3.org/2000/svg" width="54" height="54" viewBox="0 0 54 54">
  <g id="_5" data-name="5" transform="translate(-682.189 -752)">
    <g id="Group_42589" data-name="Group 42589" transform="translate(682.189 752)">
      <rect id="Rectangle_4733" data-name="Rectangle 4733" width="54" height="54" rx="27" transform="translate(0 -0.001)" fill="#d20001"/>
      <g id="refresh" transform="translate(16.238 16.224)">
        <g id="Path_56358" data-name="Path 56358" transform="translate(-2 0.025)" fill="#fdfcfb">
          <path d="M 4.699390888214111 11.4994592666626 L 4.199390888214111 11.4994592666626 L 2.000000715255737 11.4994592666626 L 1.500000715255737 11.4994592666626 L 1.500000715255737 10.9994592666626 L 1.500000715255737 9.789799690246582 L 1.500000715255737 9.757328987121582 L 1.50420069694519 9.725129127502441 C 1.853120684623718 7.050049304962158 3.005090713500977 4.668539524078369 4.835570812225342 2.838059425354004 C 7.004270553588867 0.6693594455718994 9.902710914611816 -0.5250005722045898 12.99697113037109 -0.5250005722045898 C 15.92257976531982 -0.5250005722045898 18.67303848266602 0.5426261425018311 20.79724884033203 2.492081880569458 L 22.54069137573242 0.7486394643783569 L 23.39424133300781 -0.1049205660820007 L 23.39424133300781 1.102189421653748 L 23.39424133300781 6.600679397583008 L 23.39424133300781 7.100679397583008 L 22.89424133300781 7.100679397583008 L 17.39576148986816 7.100679397583008 L 16.18865013122559 7.100679397583008 L 17.04221153259277 6.247129440307617 L 18.53587532043457 4.753464698791504 C 16.96512222290039 3.444290399551392 14.97392749786377 2.701889514923096 12.99697113037109 2.701889514923096 C 10.79312896728516 2.701889514923096 8.746018409729004 3.527854442596436 7.076458930969238 5.090537548065186 C 5.756761074066162 6.412927627563477 4.913308620452881 8.168673515319824 4.699390888214111 10.03782749176025 L 4.699390888214111 10.9994592666626 L 4.699390888214111 11.4994592666626 Z" stroke="none"/>
          <path d="M 4.199390888214111 10.9994592666626 C 4.199390888214111 10.66955947875977 4.199390888214111 10.33964920043945 4.199390888214111 10.00973987579346 C 4.419330596923828 8.030279159545898 5.29909086227417 6.160799503326416 6.728700637817383 4.731189250946045 C 8.488210678100586 3.081639528274536 10.6876106262207 2.201889514923096 12.99697113037109 2.201889514923096 C 15.19636058807373 2.201889514923096 17.5057315826416 3.081639528274536 19.26525115966797 4.731189250946045 L 17.39576148986816 6.600679397583008 L 22.89424133300781 6.600679397583008 L 22.89424133300781 1.102189421653748 L 20.8048210144043 3.191609382629395 C 16.5159969329834 -1.097201347351074 9.477939605712891 -1.097199678421021 5.189120769500732 3.191609382629395 C 3.429610729217529 4.95112943649292 2.329910755157471 7.260489463806152 2.000000715255737 9.789799690246582 L 2.000000715255737 10.9994592666626 L 4.199390888214111 10.9994592666626 M 5.199390888214111 11.9994592666626 L 1.000000715255737 11.9994592666626 L 1.000000715255737 9.724859237670898 L 1.008400678634644 9.660459518432617 C 1.371710658073425 6.875059604644775 2.57287073135376 4.393659591674805 4.482010841369629 2.484509468078613 C 6.745160579681396 0.2213694304227829 9.769160270690918 -1.02500057220459 12.99697113037109 -1.02500057220459 C 15.88631725311279 -1.02500057220459 18.61251068115234 -0.02617873623967171 20.77569961547852 1.80651068687439 L 23.89424133300781 -1.312020540237427 L 23.89424133300781 7.600679397583008 L 14.9815502166748 7.600679397583008 L 17.78255653381348 4.79966402053833 C 16.37731552124023 3.77542781829834 14.68093204498291 3.201889514923096 12.99697113037109 3.201889514923096 C 10.9251184463501 3.201889514923096 8.998614311218262 3.979021310806274 7.424539089202881 5.449594974517822 C 6.194045066833496 6.685201168060303 5.405360698699951 8.32237720489502 5.199390888214111 10.06676578521729 L 5.199390888214111 11.9994592666626 Z" stroke="none" fill="#fdfcfb"/>
        </g>
        <g id="Path_56359" data-name="Path 56359" transform="translate(-1.9 1.024)" fill="#fdfcfb">
          <path d="M 12.89727210998535 21.49697685241699 C 11.34778213500977 21.49697685241699 9.860002517700195 21.21173667907715 8.475252151489258 20.6491870880127 C 7.229329109191895 20.14302825927734 6.09501838684082 19.42365074157715 5.0969557762146 18.50742340087891 L 3.353552579879761 20.25082588195801 L 2.50000262260437 21.1043872833252 L 2.50000262260437 19.89727592468262 L 2.50000262260437 14.3987865447998 L 2.50000262260437 13.8987865447998 L 3.00000262260437 13.8987865447998 L 8.498482704162598 13.8987865447998 L 9.705582618713379 13.8987865447998 L 8.852032661437988 14.7523365020752 L 7.357400417327881 16.24697685241699 C 8.953266143798828 17.59052658081055 10.85813903808594 18.29757690429688 12.89727210998535 18.29757690429688 C 15.10110378265381 18.29757690429688 17.14820671081543 17.47161865234375 18.81778717041016 15.90893459320068 C 20.32852172851562 14.39488506317139 21.19485282897949 12.24166965484619 21.19485282897949 9.999996185302734 L 21.19485282897949 9.499996185302734 L 21.69485282897949 9.499996185302734 L 23.89424324035645 9.499996185302734 L 24.39424324035645 9.499996185302734 L 24.39424324035645 9.999996185302734 C 24.39424324035645 13.06687641143799 23.1784725189209 16.04159736633301 21.05867195129395 18.16140747070312 C 19.97615242004395 19.24393653869629 18.71804237365723 20.08094596862793 17.31930351257324 20.6491870880127 C 15.93455219268799 21.21173667907715 14.44676303863525 21.49697685241699 12.89727210998535 21.49697685241699 Z" stroke="none"/>
          <path d="M 21.69485282897949 9.999996185302734 C 21.69485282897949 12.30936622619629 20.81509208679199 14.61872673034668 19.16555213928223 16.26827621459961 C 17.40603256225586 17.91781616210938 15.20664215087891 18.79757690429688 12.89727210998535 18.79757690429688 C 10.58791351318359 18.79757690429688 8.388511657714844 17.91781616210938 6.629003524780273 16.26827621459961 L 8.498481750488281 14.3987865447998 L 3.000001907348633 14.3987865447998 L 3.000001907348633 19.89727783203125 L 5.089422225952148 17.80785751342773 C 7.178852081298828 19.89727783203125 9.928092956542969 20.99697685241699 12.89727210998535 20.99697685241699 C 15.86646270751953 20.99697685241699 18.61570358276367 19.89727783203125 20.70512199401855 17.80785751342773 C 22.79454231262207 15.71842670440674 23.89424324035645 12.85921669006348 23.89424324035645 9.999996185302734 L 21.69485282897949 9.999996185302734 M 20.69485282897949 8.999996185302734 L 24.89424324035645 8.999996185302734 L 24.89424324035645 9.999996185302734 C 24.89424324035645 13.19849586486816 23.62510299682617 16.30208587646484 21.4122314453125 18.51496696472168 C 19.16682243347168 20.7603759765625 16.14281272888184 21.99697685241699 12.89727210998535 21.99697685241699 C 9.994440078735352 21.99697685241699 7.268966674804688 21.00786209106445 5.119134902954102 19.19236373901367 L 2.000001907348633 22.31148529052734 L 2.000001907348633 13.3987865447998 L 10.91268253326416 13.3987865447998 L 8.108186721801758 16.20329856872559 C 9.520349502563477 17.2496337890625 11.15757369995117 17.79757690429688 12.89727210998535 17.79757690429688 C 14.96911525726318 17.79757690429688 16.89572906494141 17.02034187316895 18.46982383728027 15.54976844787598 C 19.88402938842773 14.12906455993652 20.69485282897949 12.10725212097168 20.69485282897949 9.999996185302734 L 20.69485282897949 8.999996185302734 Z" stroke="none" fill="#fdfcfb"/>
        </g>
      </g>
    </g>
  </g>
</svg>
